<svg width="100" height="100" viewBox="0 0 100 100" fill="none" xmlns="http://www.w3.org/2000/svg">
<path fill-rule="evenodd" clip-rule="evenodd" d="M71.8388 28.6305C68.8289 23.4688 63.233 20 56.8269 20C47.2363 20 39.4615 27.7747 39.4615 37.3654C39.4615 38.792 39.6336 40.1784 39.958 41.505C34.1738 41.6796 29.5385 46.4235 29.5385 52.25C29.5385 58.1871 34.3514 63 40.2885 63C40.3629 63 40.4373 62.9992 40.5114 62.9977C40.5747 62.9992 40.6382 63 40.7019 63H91.1442C95.4828 63 99 59.4829 99 55.1442C99 50.8056 95.4828 47.2885 91.1442 47.2885H88.1763C88.7584 45.7456 89.0769 44.0735 89.0769 42.3269C89.0769 34.5631 82.7831 28.2692 75.0192 28.2692C73.9254 28.2692 72.8608 28.3942 71.8388 28.6305Z" fill="#BAD7FF"/>
<path fill-rule="evenodd" clip-rule="evenodd" d="M53.1539 34.4369C49.514 28.1948 42.7469 24 35 24C23.402 24 14 33.402 14 45C14 46.7252 14.208 48.4018 14.6004 50.006C7.60556 50.2172 2 55.954 2 63C2 70.1797 7.8203 76 15 76C15.0901 76 15.1799 75.9991 15.2696 75.9973C15.3462 75.9991 15.423 76 15.5 76H76.5C81.7467 76 86 71.7467 86 66.5C86 61.2533 81.7467 57 76.5 57H72.9109C73.6148 55.1342 74 53.1121 74 51C74 41.6112 66.3888 34 57 34C55.6773 34 54.3898 34.1511 53.1539 34.4369Z" fill="white"/>
</svg>
