<svg width="100" height="100" viewBox="0 0 100 100" fill="none" xmlns="http://www.w3.org/2000/svg">
<path d="M65.9728 50.0073C65.9728 58.8247 58.8249 65.9727 50.0075 65.9727C41.19 65.9727 34.0421 58.8247 34.0421 50.0073C34.0421 41.1899 41.19 34.042 50.0075 34.042C58.8249 34.042 65.9728 41.1899 65.9728 50.0073Z" fill="#F8CB4E"/>
<path fill-rule="evenodd" clip-rule="evenodd" d="M77.7033 22.6092C78.2472 23.1531 78.2472 24.0349 77.7033 24.5788L67.1532 35.1289C66.6093 35.6728 65.7275 35.6728 65.1836 35.1289C64.6397 34.585 64.6397 33.7032 65.1836 33.1593L75.7337 22.6092C76.2776 22.0653 77.1594 22.0653 77.7033 22.6092Z" fill="#F8CB4E"/>
<path fill-rule="evenodd" clip-rule="evenodd" d="M78.0569 22.2557C78.7961 22.9948 78.7961 24.1932 78.0569 24.9324L67.5068 35.4825C66.7677 36.2216 65.5692 36.2216 64.8301 35.4825C64.0909 34.7433 64.0909 33.5449 64.8301 32.8058L75.3802 22.2557C76.1193 21.5165 77.3178 21.5165 78.0569 22.2557ZM77.3498 24.2253C77.6984 23.8766 77.6984 23.3114 77.3498 22.9628C77.0012 22.6141 76.4359 22.6141 76.0873 22.9628L65.5372 33.5129C65.1886 33.8615 65.1886 34.4267 65.5372 34.7754C65.8858 35.124 66.4511 35.124 66.7997 34.7754L77.3498 24.2253Z" fill="#F8CB4E"/>
<path fill-rule="evenodd" clip-rule="evenodd" d="M50.0073 10.9809C50.7765 10.9809 51.4 11.6044 51.4 12.3736L51.4 27.2937C51.4 28.0629 50.7765 28.6864 50.0073 28.6864C49.2381 28.6864 48.6146 28.0629 48.6146 27.2937L48.6146 12.3736C48.6146 11.6044 49.2381 10.9809 50.0073 10.9809Z" fill="#F8CB4E"/>
<path fill-rule="evenodd" clip-rule="evenodd" d="M50.0073 10.4809C51.0526 10.4809 51.9 11.3283 51.9 12.3736L51.9 27.2937C51.9 28.339 51.0526 29.1864 50.0073 29.1864C48.962 29.1864 48.1146 28.339 48.1146 27.2937L48.1146 12.3736C48.1146 11.3283 48.962 10.4809 50.0073 10.4809ZM50.9 12.3736C50.9 11.8806 50.5003 11.4809 50.0073 11.4809C49.5143 11.4809 49.1146 11.8806 49.1146 12.3736L49.1146 27.2937C49.1146 27.7868 49.5143 28.1864 50.0073 28.1864C50.5003 28.1864 50.9 27.7868 50.9 27.2937L50.9 12.3736Z" fill="#F8CB4E"/>
<path fill-rule="evenodd" clip-rule="evenodd" d="M50.0073 71.2944C50.7765 71.2944 51.4 71.918 51.4 72.6872L51.4 87.6073C51.4 88.3764 50.7765 89 50.0073 89C49.2381 89 48.6146 88.3764 48.6146 87.6073L48.6146 72.6872C48.6146 71.918 49.2381 71.2944 50.0073 71.2944Z" fill="#F8CB4E"/>
<path fill-rule="evenodd" clip-rule="evenodd" d="M50.0073 70.7944C51.0526 70.7944 51.9 71.6418 51.9 72.6872L51.9 87.6073C51.9 88.6526 51.0526 89.5 50.0073 89.5C48.962 89.5 48.1146 88.6526 48.1146 87.6073L48.1146 72.6872C48.1146 71.6418 48.962 70.7944 50.0073 70.7944ZM50.9 72.6872C50.9 72.1941 50.5003 71.7944 50.0073 71.7944C49.5143 71.7944 49.1146 72.1941 49.1146 72.6872L49.1146 87.6073C49.1146 88.1003 49.5143 88.5 50.0073 88.5C50.5003 88.5 50.9 88.1003 50.9 87.6073L50.9 72.6872Z" fill="#F8CB4E"/>
<path fill-rule="evenodd" clip-rule="evenodd" d="M22.6094 22.4136C23.1533 21.8697 24.0352 21.8697 24.579 22.4136L35.1291 32.9637C35.673 33.5076 35.673 34.3895 35.1291 34.9333C34.5852 35.4772 33.7034 35.4772 33.1595 34.9333L22.6094 24.3832C22.0655 23.8394 22.0655 22.9575 22.6094 22.4136Z" fill="#F8CB4E"/>
<path fill-rule="evenodd" clip-rule="evenodd" d="M22.2559 22.0601C22.995 21.3209 24.1934 21.3209 24.9326 22.0601L35.4827 32.6102C36.2219 33.3493 36.2218 34.5477 35.4827 35.2869C34.7435 36.026 33.5451 36.026 32.806 35.2869L22.2559 24.7368C21.5167 23.9976 21.5167 22.7992 22.2559 22.0601ZM24.2255 22.7672C23.8769 22.4185 23.3116 22.4185 22.963 22.7672C22.6144 23.1158 22.6144 23.681 22.963 24.0297L33.5131 34.5798C33.8617 34.9284 34.427 34.9284 34.7756 34.5798C35.1242 34.2311 35.1242 33.6659 34.7756 33.3173L24.2255 22.7672Z" fill="#F8CB4E"/>
<path fill-rule="evenodd" clip-rule="evenodd" d="M65.1835 64.9878C65.7274 64.4439 66.6092 64.4439 67.1531 64.9878L77.7032 75.5379C78.2471 76.0818 78.2471 76.9636 77.7032 77.5075C77.1593 78.0514 76.2775 78.0514 75.7336 77.5075L65.1835 66.9574C64.6396 66.4135 64.6396 65.5317 65.1835 64.9878Z" fill="#F8CB4E"/>
<path fill-rule="evenodd" clip-rule="evenodd" d="M64.83 64.6343C65.5691 63.8951 66.7675 63.8951 67.5067 64.6343L78.0568 75.1844C78.7959 75.9235 78.7959 77.1219 78.0568 77.8611C77.3176 78.6003 76.1192 78.6003 75.3801 77.8611L64.83 67.311C64.0908 66.5718 64.0908 65.3734 64.83 64.6343ZM66.7996 65.3414C66.451 64.9928 65.8857 64.9928 65.5371 65.3414C65.1885 65.69 65.1885 66.2553 65.5371 66.6039L76.0872 77.154C76.4358 77.5026 77.0011 77.5026 77.3497 77.154C77.6983 76.8054 77.6983 76.2401 77.3497 75.8915L66.7996 65.3414Z" fill="#F8CB4E"/>
<path fill-rule="evenodd" clip-rule="evenodd" d="M10.981 50.3885C10.981 49.6194 11.6045 48.9958 12.3737 48.9958H27.2938C28.063 48.9958 28.6865 49.6194 28.6865 50.3885C28.6865 51.1577 28.063 51.7813 27.2938 51.7813H12.3737C11.6045 51.7813 10.981 51.1577 10.981 50.3885Z" fill="#F8CB4E"/>
<path fill-rule="evenodd" clip-rule="evenodd" d="M10.481 50.3885C10.481 49.3432 11.3284 48.4958 12.3737 48.4958H27.2938C28.3391 48.4958 29.1865 49.3432 29.1865 50.3885C29.1865 51.4339 28.3391 52.2813 27.2938 52.2813H12.3737C11.3284 52.2813 10.481 51.4339 10.481 50.3885ZM12.3737 49.4958C11.8806 49.4958 11.481 49.8955 11.481 50.3885C11.481 50.8816 11.8806 51.2813 12.3737 51.2813H27.2938C27.7868 51.2813 28.1865 50.8816 28.1865 50.3885C28.1865 49.8955 27.7868 49.4958 27.2938 49.4958H12.3737Z" fill="#F8CB4E"/>
<path fill-rule="evenodd" clip-rule="evenodd" d="M71.2946 50.3885C71.2946 49.6194 71.9181 48.9958 72.6873 48.9958H87.6074C88.3766 48.9958 89.0001 49.6194 89.0001 50.3885C89.0001 51.1577 88.3766 51.7813 87.6074 51.7813H72.6873C71.9181 51.7813 71.2946 51.1577 71.2946 50.3885Z" fill="#F8CB4E"/>
<path fill-rule="evenodd" clip-rule="evenodd" d="M70.7946 50.3885C70.7946 49.3432 71.642 48.4958 72.6873 48.4958H87.6074C88.6527 48.4958 89.5001 49.3432 89.5001 50.3885C89.5001 51.4339 88.6527 52.2813 87.6074 52.2813H72.6873C71.642 52.2813 70.7946 51.4339 70.7946 50.3885ZM72.6873 49.4958C72.1942 49.4958 71.7946 49.8955 71.7946 50.3885C71.7946 50.8816 72.1942 51.2813 72.6873 51.2813H87.6074C88.1004 51.2813 88.5001 50.8816 88.5001 50.3885C88.5001 49.8955 88.1004 49.4958 87.6074 49.4958H72.6873Z" fill="#F8CB4E"/>
<path fill-rule="evenodd" clip-rule="evenodd" d="M22.4135 77.5075C21.8696 76.9636 21.8696 76.0818 22.4135 75.5379L32.9636 64.9878C33.5075 64.4439 34.3893 64.4439 34.9332 64.9878C35.4771 65.5317 35.4771 66.4135 34.9332 66.9574L24.3831 77.5075C23.8392 78.0514 22.9574 78.0514 22.4135 77.5075Z" fill="#F8CB4E"/>
<path fill-rule="evenodd" clip-rule="evenodd" d="M22.06 77.8611C21.3209 77.1219 21.3209 75.9235 22.06 75.1843L32.6101 64.6342C33.3493 63.8951 34.5477 63.8951 35.2869 64.6342C36.026 65.3734 36.026 66.5718 35.2869 67.311L24.7368 77.8611C23.9976 78.6002 22.7992 78.6002 22.06 77.8611ZM22.7671 75.8915C22.4185 76.2401 22.4185 76.8053 22.7671 77.154C23.1158 77.5026 23.681 77.5026 24.0296 77.154L34.5797 66.6039C34.9284 66.2552 34.9284 65.69 34.5797 65.3414C34.2311 64.9927 33.6659 64.9927 33.3172 65.3414L22.7671 75.8915Z" fill="#F8CB4E"/>
</svg>
