<svg width="100" height="100" viewBox="0 0 100 100" fill="none" xmlns="http://www.w3.org/2000/svg">
<path d="M38.1577 32.545C38.1577 38.4272 33.3892 43.1957 27.5069 43.1957C21.6247 43.1957 16.8562 38.4272 16.8562 32.545C16.8562 26.6627 21.6247 21.8942 27.5069 21.8942C33.3892 21.8942 38.1577 26.6627 38.1577 32.545Z" fill="#FEDC7B"/>
<path fill-rule="evenodd" clip-rule="evenodd" d="M46.1631 14.4471C46.6253 14.9092 46.6253 15.6585 46.1631 16.1207L39.4846 22.7992C39.0225 23.2613 38.2732 23.2613 37.811 22.7992C37.3489 22.337 37.3489 21.5877 37.811 21.1256L44.4895 14.4471C44.9517 13.9849 45.701 13.9849 46.1631 14.4471Z" fill="#FEDC7B"/>
<path fill-rule="evenodd" clip-rule="evenodd" d="M27.6904 6.50983C28.3439 6.50983 28.8738 7.03966 28.8738 7.69324L28.8738 17.1381C28.8738 17.7916 28.3439 18.3215 27.6904 18.3215C27.0368 18.3215 26.5069 17.7916 26.5069 17.1381L26.5069 7.69324C26.5069 7.03966 27.0368 6.50983 27.6904 6.50983Z" fill="#FEDC7B"/>
<path fill-rule="evenodd" clip-rule="evenodd" d="M9.40905 13.957C9.8712 13.4948 10.6205 13.4948 11.0827 13.957L17.7611 20.6355C18.2233 21.0976 18.2233 21.8469 17.7611 22.3091C17.299 22.7712 16.5497 22.7712 16.0875 22.3091L9.40905 15.6306C8.9469 15.1684 8.9469 14.4191 9.40905 13.957Z" fill="#FEDC7B"/>
<path fill-rule="evenodd" clip-rule="evenodd" d="M1.4718 32.545C1.4718 31.8914 2.00164 31.3615 2.65522 31.3615H12.1C12.7536 31.3615 13.2835 31.8914 13.2835 32.545C13.2835 33.1985 12.7536 33.7284 12.1 33.7284H2.65522C2.00164 33.7284 1.4718 33.1985 1.4718 32.545Z" fill="#FEDC7B"/>
<path fill-rule="evenodd" clip-rule="evenodd" d="M8.91895 50.711C8.4568 50.2489 8.4568 49.4996 8.91895 49.0374L15.5975 42.3589C16.0596 41.8968 16.8089 41.8968 17.2711 42.3589C17.7332 42.8211 17.7332 43.5704 17.2711 44.0325L10.5926 50.711C10.1304 51.1732 9.38111 51.1732 8.91895 50.711Z" fill="#FEDC7B"/>
<path fill-rule="evenodd" clip-rule="evenodd" d="M65.1539 34.4369C61.514 28.1948 54.7469 24 47 24C35.402 24 26 33.402 26 45C26 46.7252 26.208 48.4018 26.6004 50.006C19.6056 50.2172 14 55.954 14 63C14 70.1797 19.8203 76 27 76C27.0901 76 27.1799 75.9991 27.2696 75.9973C27.3462 75.9991 27.423 76 27.5 76H88.5C93.7467 76 98 71.7467 98 66.5C98 61.2533 93.7467 57 88.5 57H84.9109C85.6148 55.1342 86 53.1121 86 51C86 41.6112 78.3888 34 69 34C67.6773 34 66.3898 34.1511 65.1539 34.4369Z" fill="white"/>
</svg>
