<svg width="100" height="100" viewBox="0 0 100 100" fill="none" xmlns="http://www.w3.org/2000/svg">
<path fill-rule="evenodd" clip-rule="evenodd" d="M55.1539 34.4369C51.514 28.1948 44.7469 24 37 24C25.402 24 16 33.402 16 45C16 46.7252 16.208 48.4018 16.6004 50.006C9.60556 50.2172 4 55.954 4 63C4 70.1797 9.8203 76 17 76C17.0901 76 17.1799 75.9991 17.2696 75.9973C17.3462 75.9991 17.423 76 17.5 76H78.5C83.7467 76 88 71.7467 88 66.5C88 61.2533 83.7467 57 78.5 57H74.9109C75.6148 55.1342 76 53.1121 76 51C76 41.6112 68.3888 34 59 34C57.6773 34 56.3898 34.1511 55.1539 34.4369Z" fill="white"/>
<path fill-rule="evenodd" clip-rule="evenodd" d="M36 25.5C36 24.6716 36.6716 24 37.5 24L71.5 24C72.3284 24 73 24.6716 73 25.5C73 26.3284 72.3284 27 71.5 27L37.5 27C36.6716 27 36 26.3284 36 25.5Z" fill="white"/>
<path fill-rule="evenodd" clip-rule="evenodd" d="M58 35.5C58 34.6716 58.6716 34 59.5 34L82.5 34C83.3284 34 84 34.6716 84 35.5C84 36.3284 83.3284 37 82.5 37L59.5 37C58.6716 37 58 36.3284 58 35.5Z" fill="white"/>
<path fill-rule="evenodd" clip-rule="evenodd" d="M74 58.5C74 57.6716 74.6716 57 75.5 57L94.5 57C95.3284 57 96 57.6716 96 58.5C96 59.3284 95.3284 60 94.5 60L75.5 60C74.6716 60 74 59.3284 74 58.5Z" fill="white"/>
<path fill-rule="evenodd" clip-rule="evenodd" d="M74 74.5C74 73.6716 74.6716 73 75.5 73L94.5 73C95.3284 73 96 73.6716 96 74.5C96 75.3284 95.3284 76 94.5 76L75.5 76C74.6716 76 74 75.3284 74 74.5Z" fill="white"/>
<path fill-rule="evenodd" clip-rule="evenodd" d="M88 35.5C88 34.6716 88.6716 34 89.5 34L94.5 34C95.3284 34 96 34.6716 96 35.5C96 36.3284 95.3284 37 94.5 37L89.5 37C88.6716 37 88 36.3284 88 35.5Z" fill="white"/>
<path fill-rule="evenodd" clip-rule="evenodd" d="M77 25.5C77 24.6716 77.6716 24 78.5 24L94.5 24C95.3284 24 96 24.6716 96 25.5C96 26.3284 95.3284 27 94.5 27L78.5 27C77.6716 27 77 26.3284 77 25.5Z" fill="white"/>
</svg>
