<svg width="100" height="100" viewBox="0 0 100 100" fill="none" xmlns="http://www.w3.org/2000/svg">
<path fill-rule="evenodd" clip-rule="evenodd" d="M59.1539 34.4369C55.514 28.1948 48.7469 24 41 24C29.402 24 20 33.402 20 45C20 46.7252 20.208 48.4018 20.6004 50.006C13.6056 50.2172 8 55.954 8 63C8 70.1797 13.8203 76 21 76C21.0901 76 21.1799 75.9991 21.2696 75.9973C21.3462 75.9991 21.423 76 21.5 76H82.5C87.7467 76 92 71.7467 92 66.5C92 61.2533 87.7467 57 82.5 57H78.9109C79.6148 55.1342 80 53.1121 80 51C80 41.6112 72.3888 34 63 34C61.6773 34 60.3898 34.1511 59.1539 34.4369Z" fill="white"/>
</svg>
