<svg width="100" height="100" viewBox="0 0 100 100" fill="none" xmlns="http://www.w3.org/2000/svg">
<path d="M38.6376 80.4427C37.285 84.0643 32.9114 86 29.6309 84.7748C26.0092 83.4221 24.1699 79.1659 25.5225 75.5442C27.3127 71.8831 35.7847 66.4346 37.7019 65.0817C37.8458 64.9802 38.1021 65.0841 38.1244 65.2587C38.4254 67.6096 39.8746 77.1307 38.6376 80.4427Z" fill="#BAD7FF"/>
<path d="M55.6376 80.4427C54.285 84.0643 49.9114 86 46.6309 84.7748C43.0092 83.4221 41.1699 79.1659 42.5225 75.5442C44.3127 71.8831 52.7847 66.4346 54.7019 65.0817C54.8458 64.9802 55.1021 65.0841 55.1244 65.2587C55.4254 67.6096 56.8746 77.1307 55.6376 80.4427Z" fill="#BAD7FF"/>
<path d="M72.6376 80.4427C71.285 84.0643 66.9114 86 63.6309 84.7748C60.0092 83.4221 58.1699 79.1659 59.5225 75.5442C61.3127 71.8831 69.7847 66.4346 71.7019 65.0817C71.8458 64.9802 72.1021 65.0841 72.1244 65.2587C72.4254 67.6096 73.8746 77.1307 72.6376 80.4427Z" fill="#BAD7FF"/>
<path fill-rule="evenodd" clip-rule="evenodd" d="M59.1539 16.4369C55.514 10.1948 48.7469 6 41 6C29.402 6 20 15.402 20 27C20 28.7252 20.208 30.4018 20.6004 32.006C13.6056 32.2172 8 37.954 8 45C8 52.1797 13.8203 58 21 58C21.0901 58 21.1799 57.9991 21.2696 57.9973C21.3462 57.9991 21.423 58 21.5 58H82.5C87.7467 58 92 53.7467 92 48.5C92 43.2533 87.7467 39 82.5 39H78.9109C79.6148 37.1342 80 35.1121 80 33C80 23.6112 72.3888 16 63 16C61.6773 16 60.3898 16.1511 59.1539 16.4369Z" fill="white"/>
</svg>
