<svg width="100" height="100" viewBox="0 0 100 100" fill="none" xmlns="http://www.w3.org/2000/svg">
<path fill-rule="evenodd" clip-rule="evenodd" d="M59.1539 16.4369C55.514 10.1948 48.7469 6 41 6C29.402 6 20 15.402 20 27C20 28.7252 20.208 30.4018 20.6004 32.006C13.6056 32.2172 8 37.954 8 45C8 52.1797 13.8203 58 21 58C21.0901 58 21.1799 57.9991 21.2696 57.9973C21.3462 57.9991 21.423 58 21.5 58H82.5C87.7467 58 92 53.7467 92 48.5C92 43.2533 87.7467 39 82.5 39H78.9109C79.6148 37.1342 80 35.1121 80 33C80 23.6112 72.3888 16 63 16C61.6773 16 60.3898 16.1511 59.1539 16.4369Z" fill="white"/>
<path d="M66 78.5C66 80.433 64.433 82 62.5 82C60.567 82 59 80.433 59 78.5C59 76.567 60.567 75 62.5 75C64.433 75 66 76.567 66 78.5Z" fill="white"/>
<path d="M78 67.5C78 69.433 76.433 71 74.5 71C72.567 71 71 69.433 71 67.5C71 65.567 72.567 64 74.5 64C76.433 64 78 65.567 78 67.5Z" fill="white"/>
<path d="M53 67.5C53 69.433 51.433 71 49.5 71C47.567 71 46 69.433 46 67.5C46 65.567 47.567 64 49.5 64C51.433 64 53 65.567 53 67.5Z" fill="white"/>
<path d="M53 89.5C53 91.433 51.433 93 49.5 93C47.567 93 46 91.433 46 89.5C46 87.567 47.567 86 49.5 86C51.433 86 53 87.567 53 89.5Z" fill="white"/>
<path d="M29 67.5C29 69.433 27.433 71 25.5 71C23.567 71 22 69.433 22 67.5C22 65.567 23.567 64 25.5 64C27.433 64 29 65.567 29 67.5Z" fill="white"/>
<path d="M41 78.5C41 80.433 39.433 82 37.5 82C35.567 82 34 80.433 34 78.5C34 76.567 35.567 75 37.5 75C39.433 75 41 76.567 41 78.5Z" fill="white"/>
</svg>
