<svg width="100" height="100" viewBox="0 0 100 100" fill="none" xmlns="http://www.w3.org/2000/svg">
<path d="M54.8148 63H45.1852L40 79H47.4074L42.963 95L60 72.4545H51.1111L54.8148 63Z" fill="#FEDC7B"/>
<path fill-rule="evenodd" clip-rule="evenodd" d="M59.1539 16.4369C55.514 10.1948 48.7469 6 41 6C29.402 6 20 15.402 20 27C20 28.7252 20.208 30.4018 20.6004 32.006C13.6056 32.2172 8 37.954 8 45C8 52.1797 13.8203 58 21 58C21.0901 58 21.1799 57.9991 21.2696 57.9973C21.3462 57.9991 21.423 58 21.5 58H82.5C87.7467 58 92 53.7467 92 48.5C92 43.2533 87.7467 39 82.5 39H78.9109C79.6148 37.1342 80 35.1121 80 33C80 23.6112 72.3888 16 63 16C61.6773 16 60.3898 16.1511 59.1539 16.4369Z" fill="#BAD7FF"/>
</svg>
